HIERARCHY
ROOT mixamorig:Hips
{
	OFFSET 0.000000 35.069874 -0.029489
	CHANNELS 6 Xposition Yposition Zposition Xrotation Yrotation Zrotation
	JOINT mixamorig:Spine
	{
		OFFSET 0.000000 6.876060 0.125662
		CHANNELS 3 Xrotation Yrotation Zrotation
		JOINT mixamorig:Spine1
		{
			OFFSET 0.000000 8.022060 0.146603
			CHANNELS 3 Xrotation Yrotation Zrotation
			JOINT mixamorig:Spine2
			{
				OFFSET 0.000000 9.168079 0.167547
				CHANNELS 3 Xrotation Yrotation Zrotation
				JOINT mixamorig:Neck
				{
					OFFSET 0.000000 10.314075 0.188489
					CHANNELS 3 Xrotation Yrotation Zrotation
					JOINT mixamorig:Head
					{
						OFFSET 0.000000 7.643753 -2.377445
						CHANNELS 3 Xrotation Yrotation Zrotation
						JOINT mixamorig:HeadTop_End
						{
							OFFSET 0.000000 43.788605 -13.619637
							CHANNELS 3 Xrotation Yrotation Zrotation
							End Site
							{
								OFFSET 0.000000 45.857788 0.000000
							}
						}
					}
				}
				JOINT mixamorig:LeftShoulder
				{
					OFFSET 4.392187 8.825001 0.174995
					CHANNELS 3 Xrotation Yrotation Zrotation
					JOINT mixamorig:LeftArm
					{
						OFFSET 8.774866 -2.970879 -0.026997
						CHANNELS 3 Xrotation Yrotation Zrotation
						JOINT mixamorig:LeftForeArm
						{
							OFFSET 8.450586 -0.797432 -0.648343
							CHANNELS 3 Xrotation Yrotation Zrotation
							JOINT mixamorig:LeftHand
							{
								OFFSET 18.458662 0.962311 0.193148
								CHANNELS 3 Xrotation Yrotation Zrotation
								JOINT mixamorig:LeftHandThumb1
								{
									OFFSET 2.379990 -1.333382 2.680594
									CHANNELS 3 Xrotation Yrotation Zrotation
									JOINT mixamorig:LeftHandThumb2
									{
										OFFSET 1.903984 -1.066746 2.144473
										CHANNELS 3 Xrotation Yrotation Zrotation
										JOINT mixamorig:LeftHandThumb3
										{
											OFFSET 0.966393 -1.489639 2.964555
											CHANNELS 3 Xrotation Yrotation Zrotation
											JOINT mixamorig:LeftHandThumb4
											{
												OFFSET 1.205181 -0.823021 1.625701
												CHANNELS 3 Xrotation Yrotation Zrotation
												End Site
												{
													OFFSET 1.050617 -0.818157 1.731923
												}
											}
										}
									}
								}
								JOINT mixamorig:LeftHandIndex1
								{
									OFFSET 7.830624 -0.787468 2.563931
									CHANNELS 3 Xrotation Yrotation Zrotation
									JOINT mixamorig:LeftHandIndex2
									{
										OFFSET 3.312897 -0.052605 1.515312
										CHANNELS 3 Xrotation Yrotation Zrotation
										JOINT mixamorig:LeftHandIndex3
										{
											OFFSET 3.460667 -0.207008 1.581951
											CHANNELS 3 Xrotation Yrotation Zrotation
											JOINT mixamorig:LeftHandIndex4
											{
												OFFSET 2.183182 0.110458 0.999585
												CHANNELS 3 Xrotation Yrotation Zrotation
												End Site
												{
													OFFSET 2.183868 0.110451 0.998074
												}
											}
										}
									}
								}
								JOINT mixamorig:LeftHandMiddle1
								{
									OFFSET 8.556145 -0.261200 0.258753
									CHANNELS 3 Xrotation Yrotation Zrotation
									JOINT mixamorig:LeftHandMiddle2
									{
										OFFSET 3.828903 -0.489014 -0.111505
										CHANNELS 3 Xrotation Yrotation Zrotation
										JOINT mixamorig:LeftHandMiddle3
										{
											OFFSET 3.696209 -0.166595 -0.107596
											CHANNELS 3 Xrotation Yrotation Zrotation
											JOINT mixamorig:LeftHandMiddle4
											{
												OFFSET 2.259281 0.534500 -0.065675
												CHANNELS 3 Xrotation Yrotation Zrotation
												End Site
												{
													OFFSET 2.259735 0.534134 -0.051267
												}
											}
										}
									}
								}
								JOINT mixamorig:LeftHandRing1
								{
									OFFSET 8.509293 -0.556679 -3.044941
									CHANNELS 3 Xrotation Yrotation Zrotation
									JOINT mixamorig:LeftHandRing2
									{
										OFFSET 2.995171 -0.303261 -0.843591
										CHANNELS 3 Xrotation Yrotation Zrotation
										JOINT mixamorig:LeftHandRing3
										{
											OFFSET 2.968273 -0.101997 -0.834287
											CHANNELS 3 Xrotation Yrotation Zrotation
											JOINT mixamorig:LeftHandRing4
											{
												OFFSET 1.521358 -0.461468 -0.418735
												CHANNELS 3 Xrotation Yrotation Zrotation
												End Site
												{
													OFFSET 1.516514 -0.460747 -0.436712
												}
											}
										}
									}
								}
							}
						}
					}
				}
				JOINT mixamorig:RightShoulder
				{
					OFFSET -4.392150 8.825024 0.141388
					CHANNELS 3 Xrotation Yrotation Zrotation
					JOINT mixamorig:RightArm
					{
						OFFSET -8.774886 -2.970947 -0.094209
						CHANNELS 3 Xrotation Yrotation Zrotation
						JOINT mixamorig:RightForeArm
						{
							OFFSET -8.450586 -0.797386 -0.330665
							CHANNELS 3 Xrotation Yrotation Zrotation
							JOINT mixamorig:RightHand
							{
								OFFSET -18.458664 0.962341 0.025780
								CHANNELS 3 Xrotation Yrotation Zrotation
								JOINT mixamorig:RightHandThumb1
								{
									OFFSET -2.390282 -1.240040 2.604684
									CHANNELS 3 Xrotation Yrotation Zrotation
									JOINT mixamorig:RightHandThumb2
									{
										OFFSET -1.912228 -0.992111 2.083740
										CHANNELS 3 Xrotation Yrotation Zrotation
										JOINT mixamorig:RightHandThumb3
										{
											OFFSET -0.876358 -1.555370 2.930126
											CHANNELS 3 Xrotation Yrotation Zrotation
											JOINT mixamorig:RightHandThumb4
											{
												OFFSET -1.227077 -0.755932 1.835223
												CHANNELS 3 Xrotation Yrotation Zrotation
												End Site
												{
													OFFSET -1.124962 -0.750702 1.901603
												}
											}
										}
									}
								}
								JOINT mixamorig:RightHandIndex1
								{
									OFFSET -8.716801 -0.633743 3.098187
									CHANNELS 3 Xrotation Yrotation Zrotation
									JOINT mixamorig:RightHandIndex2
									{
										OFFSET -3.319706 -0.240585 1.198087
										CHANNELS 3 Xrotation Yrotation Zrotation
										JOINT mixamorig:RightHandIndex3
										{
											OFFSET -3.153255 -0.154724 1.138827
											CHANNELS 3 Xrotation Yrotation Zrotation
											JOINT mixamorig:RightHandIndex4
											{
												OFFSET -1.818684 -0.003197 0.655154
												CHANNELS 3 Xrotation Yrotation Zrotation
												End Site
												{
													OFFSET -1.818668 -0.003197 0.655188
												}
											}
										}
									}
								}
								JOINT mixamorig:RightHandMiddle1
								{
									OFFSET -8.158691 -0.528496 0.196552
									CHANNELS 3 Xrotation Yrotation Zrotation
									JOINT mixamorig:RightHandMiddle2
									{
										OFFSET -3.890194 -0.261169 -0.136423
										CHANNELS 3 Xrotation Yrotation Zrotation
										JOINT mixamorig:RightHandMiddle3
										{
											OFFSET -3.903057 -0.179909 -0.137173
											CHANNELS 3 Xrotation Yrotation Zrotation
											JOINT mixamorig:RightHandMiddle4
											{
												OFFSET -2.366261 0.198380 -0.083987
												CHANNELS 3 Xrotation Yrotation Zrotation
												End Site
												{
													OFFSET -2.366409 0.198326 -0.079799
												}
											}
										}
									}
								}
								JOINT mixamorig:RightHandRing1
								{
									OFFSET -7.616104 -0.395126 -2.681268
									CHANNELS 3 Xrotation Yrotation Zrotation
									JOINT mixamorig:RightHandRing2
									{
										OFFSET -3.235790 -0.462120 -1.101476
										CHANNELS 3 Xrotation Yrotation Zrotation
										JOINT mixamorig:RightHandRing3
										{
											OFFSET -3.179264 -0.138618 -1.084847
											CHANNELS 3 Xrotation Yrotation Zrotation
											JOINT mixamorig:RightHandRing4
											{
												OFFSET -1.963291 -0.101624 -0.668250
												CHANNELS 3 Xrotation Yrotation Zrotation
												End Site
												{
													OFFSET -1.963745 -0.101669 -0.666919
												}
											}
										}
									}
								}
							}
						}
					}
				}
			}
		}
	}
	JOINT mixamorig:LeftUpLeg
	{
		OFFSET 10.205382 -3.823519 0.155145
		CHANNELS 3 Xrotation Yrotation Zrotation
		JOINT mixamorig:LeftLeg
		{
			OFFSET 0.283732 -12.998343 0.567794
			CHANNELS 3 Xrotation Yrotation Zrotation
			JOINT mixamorig:LeftFoot
			{
				OFFSET -1.058953 -10.688869 -2.184322
				CHANNELS 3 Xrotation Yrotation Zrotation
				JOINT mixamorig:LeftToeBase
				{
					OFFSET 0.108145 -7.191069 7.560211
					CHANNELS 3 Xrotation Yrotation Zrotation
					JOINT mixamorig:LeftToe_End
					{
						OFFSET 0.070226 0.081726 4.490266
						CHANNELS 3 Xrotation Yrotation Zrotation
						End Site
						{
							OFFSET 0.070226 0.081726 4.490267
						}
					}
				}
			}
		}
	}
	JOINT mixamorig:RightUpLeg
	{
		OFFSET -10.205383 -3.823513 0.005508
		CHANNELS 3 Xrotation Yrotation Zrotation
		JOINT mixamorig:RightLeg
		{
			OFFSET -0.283728 -12.998341 0.610627
			CHANNELS 3 Xrotation Yrotation Zrotation
			JOINT mixamorig:RightFoot
			{
				OFFSET 1.058956 -10.688892 -1.945833
				CHANNELS 3 Xrotation Yrotation Zrotation
				JOINT mixamorig:RightToeBase
				{
					OFFSET -0.108150 -7.191040 7.372945
					CHANNELS 3 Xrotation Yrotation Zrotation
					JOINT mixamorig:RightToe_End
					{
						OFFSET -0.070229 0.081738 4.479398
						CHANNELS 3 Xrotation Yrotation Zrotation
						End Site
						{
							OFFSET -0.070229 0.081738 4.479399
						}
					}
				}
			}
		}
	}
}
MOTION
Frames: 4
Frame Time: 0.016667
-0.317565 33.519207 -0.469272 -0.181314 -10.228989 -3.150076 3.535579 2.419754 3.084042 -1.311953 0.325490 -1.658851 -1.303342 0.322722 -1.666204 -2.258045 -0.918687 3.600314 0.358960 -1.043662 9.505219 -0.000000 0.000000 -0.000001 1.625783 -7.529777 9.090661 -21.650101 -80.870102 -15.464317 -0.167544 1.160926 -8.358700 -2.521515 -2.956896 21.118571 8.214604 18.317398 1.845419 1.111044 27.862082 11.541941 -2.289493 -13.278988 -6.237947 -0.000000 -0.000003 0.000001 4.603749 23.699768 -9.573874 2.076592 0.972716 -4.388820 7.163938 0.749491 -15.394420 -0.000000 0.000002 0.000001 -0.190197 -1.422775 -6.548154 -0.116281 1.254044 -12.241747 -0.500722 1.955447 -26.793355 -0.000000 -0.000001 -0.000001 -4.387616 -13.850930 -14.325601 -2.865452 1.712791 -11.043042 1.238682 2.247602 3.341137 0.000000 -0.000000 -0.000002 2.621258 37.632905 3.275227 9.565422 48.774784 -12.583920 -1.215360 11.064089 8.481774 2.296164 -14.015969 -56.639224 8.888147 -24.050619 -7.916902 -0.386886 -30.116821 -13.748953 1.603827 14.152276 7.697697 0.000003 0.000001 -0.000000 2.430445 -18.793033 3.405858 3.561439 -0.848619 9.484640 3.747580 -0.677929 10.150554 0.000001 0.000001 -0.000001 -0.332568 2.132449 7.891951 -0.155775 -1.388780 10.134292 -0.399706 -1.324060 15.710350 -0.000000 -0.000001 -0.000001 -4.863136 17.235357 10.336013 -4.313639 -2.203207 13.752148 -2.319104 -1.716322 7.301966 -0.000001 -0.000002 0.000002 -2.182470 13.938091 19.668057 23.534465 2.529457 -3.504201 -16.060181 19.021705 -14.536060 -0.996217 0.000002 0.000015 0.000000 -0.000001 -0.000000 -12.367024 -4.630455 -13.187949 18.261482 -6.251550 -2.270517 -2.132486 3.686566 17.582787 -2.240783 0.000093 -0.003705 -0.000000 -0.000004 0.000000 
-0.268298 33.462597 -0.468594 -1.339525 -11.218567 -3.656905 4.480457 2.419323 3.549935 -1.408807 0.325341 -1.798847 -1.399523 0.320234 -1.807017 -1.538510 -0.726076 3.631335 0.363114 -0.306081 9.593102 -0.000000 0.000001 0.000000 1.610011 -7.371384 9.181475 -24.393952 -80.537096 -18.669520 -0.149250 1.355349 -8.358915 -2.528212 -2.582943 20.967200 8.214606 18.317399 1.845426 1.111045 27.862111 11.541947 -2.289494 -13.278988 -6.237949 -0.000000 -0.000001 -0.000001 4.533190 23.688083 -9.411155 2.041487 0.963196 -4.314834 7.146311 0.748054 -15.357248 0.000000 0.000003 -0.000002 -0.191545 -1.444658 -6.413689 -0.117313 1.241355 -12.164742 -0.501175 1.949067 -26.756399 0.000000 -0.000000 0.000002 -4.361600 -13.880339 -14.198767 -2.850724 1.698031 -10.980619 1.245655 2.242724 3.370972 0.000001 0.000002 -0.000002 2.621205 37.738834 3.283483 8.151254 49.526921 -11.061192 -1.216819 11.078970 8.482063 2.597413 -13.531941 -55.555816 8.888137 -24.050594 -7.916912 -0.386893 -30.116828 -13.748956 1.603824 14.152285 7.697690 0.000002 -0.000003 -0.000000 2.452852 -18.799399 3.469155 3.557689 -0.847911 9.474862 3.745757 -0.677593 10.145693 -0.000000 0.000001 0.000002 -0.332693 2.126592 7.929558 -0.155760 -1.387120 10.123600 -0.399674 -1.322661 15.701770 0.000002 0.000000 -0.000002 -4.866695 17.232296 10.349480 -4.309050 -2.198767 13.735784 -2.315867 -1.713792 7.291363 0.000001 0.000001 -0.000000 -0.401817 13.750165 20.081668 23.887840 2.498233 -4.270831 -16.967141 19.706043 -14.225688 -1.048784 -0.000026 0.000015 -0.000000 -0.000001 0.000000 -11.783981 -3.466794 -13.103791 18.424492 -5.107168 -1.538448 -1.533085 3.101524 17.138756 -2.473744 0.000099 -0.005019 -0.000000 0.000000 0.000000 
-0.216622 33.393028 -0.464470 -2.320616 -12.501091 -4.006202 5.121217 2.407575 3.889319 -1.361307 0.323589 -1.907195 -1.351580 0.315814 -1.915482 -1.136886 -0.546202 3.610838 0.576694 0.508780 9.240807 -0.000000 -0.000000 0.000000 1.463351 -6.716169 9.017879 -26.022370 -80.384537 -20.619911 -0.131580 1.543113 -8.359168 -2.476677 -2.344351 20.785065 8.214599 18.317398 1.845433 1.111044 27.862085 11.541941 -2.289496 -13.278990 -6.237953 -0.000000 0.000002 0.000001 4.491584 23.681097 -9.315212 2.017903 0.956801 -4.265097 7.134460 0.747064 -15.332252 -0.000001 -0.000000 -0.000002 -0.192382 -1.458517 -6.328609 -0.118010 1.232747 -12.112516 -0.501477 1.944752 -26.731479 0.000000 -0.000000 0.000001 -4.344321 -13.899789 -14.114666 -2.840244 1.687527 -10.936213 1.250643 2.239252 3.392226 0.000000 -0.000001 -0.000002 2.618215 37.671983 3.284655 7.199650 50.412656 -9.965500 -1.204408 10.952438 8.479592 2.791291 -13.240616 -54.820539 8.888141 -24.050604 -7.916915 -0.386871 -30.116824 -13.748939 1.603826 14.152285 7.697697 -0.000000 -0.000003 0.000002 2.487888 -18.809352 3.568101 3.572498 -0.850751 9.513508 3.753044 -0.678933 10.165015 0.000001 -0.000003 -0.000003 -0.332909 2.115706 7.999357 -0.155785 -1.391735 10.153156 -0.399733 -1.324976 15.716084 0.000000 -0.000001 -0.000002 -4.879259 17.221426 10.397238 -4.312272 -2.201901 13.747286 -2.317410 -1.714980 7.296422 -0.000001 0.000001 -0.000001 1.364963 14.364434 20.382825 23.778383 2.338891 -5.109164 -17.719992 20.099022 -13.846332 -1.068901 -0.000017 0.000016 0.000000 -0.000002 -0.000000 -12.010130 -2.896731 -13.226064 19.107048 -3.168080 -0.926138 -1.098282 2.458700 16.623733 -2.661444 0.000123 -0.005109 0.000000 -0.000001 0.000000 
-0.156382 33.324635 -0.458737 -3.161569 -13.784158 -4.239321 5.539362 2.377930 4.138237 -1.236600 0.319303 -1.975046 -1.226685 0.309057 -1.983005 -0.889103 -0.381138 3.520074 0.860788 1.268691 8.610557 0.000000 0.000000 0.000001 1.281950 -5.888982 8.745130 -27.017795 -80.306038 -21.865322 -0.115051 1.718750 -8.359472 -2.388478 -2.176563 20.584109 8.214595 18.317393 1.845441 1.111050 27.862131 11.541937 -2.289496 -13.278990 -6.237951 0.000002 -0.000000 -0.000002 4.470885 23.677607 -9.267444 2.003074 0.952774 -4.233834 7.127015 0.746448 -15.316544 -0.000000 0.000002 -0.000000 -0.192818 -1.465900 -6.283319 -0.118456 1.227141 -12.078533 -0.501682 1.941858 -26.714734 -0.000000 -0.000001 -0.000001 -4.334260 -13.911117 -14.065721 -2.832925 1.680222 -10.905234 1.254224 2.236758 3.407487 0.000000 0.000002 -0.000004 2.607633 37.467986 3.287080 6.547312 51.355492 -9.102714 -1.185429 10.758591 8.475873 2.912571 -13.068444 -54.297777 8.888132 -24.050606 -7.916914 -0.386894 -30.116821 -13.748963 1.603821 14.152285 7.697697 0.000003 -0.000001 0.000002 2.530350 -18.821291 3.687954 3.601135 -0.856195 9.588232 3.767170 -0.681570 10.202444 -0.000000 0.000001 0.000001 -0.333198 2.101342 8.091743 -0.155801 -1.401598 10.216118 -0.399893 -1.330075 15.747732 0.000000 0.000001 0.000003 -4.898792 17.204543 10.471418 -4.322665 -2.212056 13.784496 -2.323019 -1.719366 7.314777 0.000000 0.000001 -0.000001 3.099965 15.186449 20.394347 23.365628 2.191785 -5.794379 -18.284871 20.498574 -13.480887 -1.086652 -0.000013 0.000016 -0.000000 -0.000001 0.000000 -12.509999 -2.901846 -13.401582 19.815938 -0.994240 -0.650910 -0.800063 1.846293 16.226740 -2.722743 0.000092 -0.003681 -0.000000 -0.000001 0.000000 
